<svg width="163.000000" height="53.000000" viewBox="0 0 163 53" fill="none" xmlns="http://www.w3.org/2000/svg" xmlns:xlink="http://www.w3.org/1999/xlink">
	<desc>
			Created with Pixso.
	</desc>
	<defs/>
	<path id="nline" d="M118.93 44.52L117.36 44.52L117.36 18.74L118.93 18.74L118.93 44.52ZM126.15 20.23C125.96 19.98 125.68 19.85 125.29 19.85C124.92 19.85 124.64 19.98 124.46 20.23Q124.18 20.6 124.18 21.23Q124.18 21.86 124.46 22.22C124.64 22.47 124.92 22.59 125.29 22.59C125.68 22.59 125.96 22.47 126.15 22.22C126.33 21.98 126.43 21.65 126.43 21.23C126.43 20.81 126.33 20.48 126.15 20.23ZM106.09 26.16Q108.54 26.16 110 27.37Q110.22 27.55 110.41 27.75Q111.92 29.34 111.92 32.74L111.92 44.52L110.38 44.52L110.38 32.84Q110.38 30.16 109.24 28.9Q109.07 28.7 108.87 28.54Q107.77 27.64 105.93 27.64Q103.84 27.64 102.49 28.64Q102.07 28.96 101.71 29.38Q100.27 31.1 100.27 34.59L100.27 44.52L98.71 44.52L98.71 26.51L99.97 26.51L100.21 29.79L100.3 29.79C100.6 29.12 101 28.51 101.51 27.97Q101.55 27.94 101.58 27.9L101.58 27.9Q102.35 27.12 103.44 26.66Q104.58 26.16 106.09 26.16ZM139.01 26.16C140.89 26.16 142.33 26.69 143.33 27.75C144.34 28.81 144.84 30.48 144.84 32.74L144.84 44.52L143.3 44.52L143.3 32.84C143.3 31.05 142.92 29.74 142.16 28.9Q141.99 28.7 141.79 28.54L141.79 28.54Q140.69 27.64 138.85 27.64C137.02 27.64 135.61 28.22 134.63 29.38C133.67 30.53 133.19 32.26 133.19 34.59L133.19 44.52L131.63 44.52L131.63 26.51L132.89 26.51L133.12 29.79L133.22 29.79C133.51 29.12 133.92 28.51 134.43 27.97C134.96 27.42 135.6 26.98 136.36 26.66C137.12 26.33 138 26.16 139.01 26.16ZM160.16 27.24C159.22 26.52 158.03 26.16 156.61 26.16C155.02 26.16 153.69 26.58 152.6 27.42Q152.47 27.52 152.35 27.63Q150.92 28.84 150.14 30.82C149.58 32.25 149.31 33.87 149.31 35.67C149.31 37.52 149.59 39.13 150.17 40.51C150.75 41.89 151.62 42.96 152.76 43.72Q154.48 44.85 157.02 44.85C158.09 44.85 159.03 44.75 159.85 44.56C160.67 44.39 161.5 44.1 162.32 43.7L162.32 42.16C161.38 42.6 160.53 42.92 159.76 43.11C159 43.28 158.1 43.37 157.07 43.37Q154.99 43.37 153.58 42.4Q152.98 41.98 152.49 41.39C151.44 40.06 150.91 38.16 150.91 35.69L163 35.69L163 34.48C163 32.87 162.76 31.44 162.29 30.19Q161.71 28.64 160.63 27.63Q160.41 27.43 160.16 27.24ZM126.04 44.52L126.04 26.51L124.49 26.51L124.49 44.52L126.04 44.52ZM152.69 29.33C153.69 28.18 154.99 27.6 156.59 27.6C157.68 27.6 158.57 27.89 159.27 28.45C159.98 29 160.51 29.78 160.86 30.79C161.2 31.79 161.38 32.95 161.38 34.26L150.95 34.26C151.13 32.11 151.71 30.46 152.69 29.33Z" fill="#0F172A" fill-opacity="1.000000" fill-rule="evenodd"/>
	<path id="o" d="M93 27.46C93 30.07 92.64 32.45 91.93 34.6C91.23 36.73 90.18 38.57 88.78 40.12C87.39 41.68 85.66 42.87 83.58 43.72C81.53 44.57 79.13 45 76.39 45C73.79 45 71.47 44.58 69.44 43.75C67.41 42.91 65.69 41.71 64.27 40.15C62.88 38.6 61.82 36.76 61.09 34.63C60.36 32.48 60 30.09 60 27.46C60 23.84 60.66 20.73 61.98 18.12C63.33 15.5 65.24 13.49 67.73 12.1C70.24 10.7 73.24 10 76.73 10C80.34 10 83.34 10.74 85.74 12.23C88.16 13.7 89.97 15.75 91.18 18.37C92.39 21 93 24.03 93 27.46ZM63.56 27.46C63.56 30.42 64.02 33.01 64.96 35.22C65.89 37.43 67.31 39.16 69.2 40.4C71.12 41.64 73.54 42.26 76.46 42.26C79.45 42.26 81.9 41.64 83.82 40.4C85.74 39.16 87.15 37.42 88.07 35.19C88.98 32.96 89.43 30.38 89.43 27.46C89.43 24.63 89 22.11 88.13 19.89C87.27 17.68 85.9 15.94 84.03 14.68C82.15 13.4 79.71 12.76 76.7 12.76C72.39 12.76 69.11 14.06 66.88 16.67C64.66 19.27 63.56 22.87 63.56 27.46Z" fill="#0D9488" fill-opacity="1.000000" fill-rule="nonzero"/>
	<path id="Line 1 (Stroke)" d="M47 53L47 0L48.97 0L48.97 53L47 53Z" fill="#0F172A" fill-opacity="1.000000" fill-rule="evenodd"/>
	<path id="X" d="M37 47L33.04 47L18.51 29.63L3.79 47L0 47L16.5 27.76L1.47 10L5.4 10L18.65 25.91L32 10L35.79 10L20.66 27.74L37 47Z" fill="#EA580C" fill-opacity="1.000000" fill-rule="nonzero"/>
</svg>
